#!OML:ASF H:\Pregnant\Project 1\Capture day 1\Session 1\femalepreg.ASF
:FULLY-SPECIFIED
:DEGREES
846
root 4.91242 15.4645 -1.69728 -157.361 188.492 -186.647
lowerback -18.4923 1.06487 8.07491
upperback -1.63003 -0.55443 3.01418
thorax 8.57822 -0.0402071 -1.44984
lowerneck -18.5722 3.64949 5.79394
upperneck 32.2458 3.44277 -0.546321
head 14.3019 2.09551 -0.622776
rclavicle 5.46658e-015 -1.78906e-014
rhumerus -24.2727 3.50336 -85.9261
rradius 24.7554
rwrist -6.56449
rhand -22.1323 -21.5764
rfingers 7.12502
rthumb 4.28105 -51.5132
lclavicle 5.46658e-015 -1.78906e-014
lhumerus -28.2568 -17.0431 88.6337
lradius 33.8908
lwrist 36.6879
lhand -27.2119 -6.27174
lfingers 7.12502
lthumb -0.624716 23.7071
rfemur -17.974 17.7288 30.9756
rtibia 29.8532
rfoot -20.381 -6.74467
rtoes -20.518
lfemur -51.6139 -12.1462 -0.615771
ltibia 6.41437
lfoot 0.969821 19.0446
ltoes -30.5296
847
root 4.90281 15.4482 -1.56668 -157.174 188.462 -186.847
lowerback -18.7089 1.19254 8.02527
upperback -1.73409 -0.385515 2.93822
thorax 8.59622 0.0386347 -1.4616
lowerneck -18.6603 3.52497 5.63188
upperneck 32.3376 3.23906 -0.339004
head 14.3461 2.01854 -0.545384
rclavicle -1.03368e-014 1.31198e-014
rhumerus -24.4427 5.24335 -86.7656
rradius 25.1616
rwrist -6.91038
rhand -21.9787 -21.7567
rfingers 7.12502
rthumb 4.42934 -51.6904
lclavicle -1.03368e-014 1.31198e-014
lhumerus -28.6548 -17.1577 88.7231
lradius 32.4888
lwrist 36.6974
lhand -27.1902 -5.64899
lfingers 7.12502
lthumb -0.603784 24.3299
rfemur -17.4246 17.6756 31.2188
rtibia 29.5166
rfoot -20.3215 -6.47734
rtoes -20.7848
lfemur -51.8847 -12.2088 -0.604267
ltibia 7.0855
lfoot 1.16262 18.7615
ltoes -30.558
848
root 4.89337 15.4319 -1.43414 -156.987 188.451 -187.043
lowerback -18.926 1.32364 7.96623
upperback -1.84227 -0.209126 2.85552
thorax 8.61037 0.120581 -1.47277
lowerneck -18.773 3.40502 5.48761
upperneck 32.4452 3.03841 -0.144184
head 14.4048 1.94357 -0.474949
rclavicle -2.38542e-015 3.10104e-014
rhumerus -24.686 7.12755 -87.629
rradius 25.6389
rwrist -7.18759
rhand -21.8164 -21.8654
rfingers 7.12502
rthumb 4.58605 -51.7957
lclavicle -2.38542e-015 3.10104e-014
lhumerus -29.0831 -17.2167 88.7866
lradius 31.1453
lwrist 36.6565
lhand -27.161 -4.96097
lfingers 7.12502
lthumb -0.575624 25.018
rfemur -16.8665 17.6267 31.45
rtibia 29.1686
rfoot -20.2364 -6.17331
rtoes -21.0823
lfemur -52.2349 -12.226 -0.579023
ltibia 8.02765
lfoot 1.28213 18.2608
ltoes -30.6161
849
root 4.88419 15.4172 -1.29927 -156.799 188.461 -187.238
lowerback -19.147 1.46302 7.90064
upperback -1.95549 -0.0193152 2.76129
thorax 8.62201 0.208703 -1.48855
lowerneck -18.8636 3.27467 5.39907
upperneck 32.5423 2.81721 0.0127154
head 14.4565 1.86155 -0.433517
rclavicle -1.10822e-014 2.78299e-014
rhumerus -25.0109 9.09971 -88.5138
rradius 26.1906
rwrist -7.38748
rhand -21.6502 -21.9037
rfingers 7.12502
rthumb 4.74657 -51.8305
lclavicle -1.10822e-014 2.78299e-014
lhumerus -29.5407 -17.2244 88.8182
lradius 29.8612
lwrist 36.5483
lhand -27.1373 -4.22797
lfingers 7.12502
lthumb -0.552728 25.7511
rfemur -16.2794 17.5939 31.667
rtibia 28.7723
rfoot -20.1061 -5.83654
rtoes -21.4022
lfemur -52.6413 -12.2379 -0.576902
ltibia 9.20905
lfoot 1.38415 17.4957
ltoes -30.4557
850
root 4.87524 15.4062 -1.16175 -156.606 188.497 -187.427
lowerback -19.3776 1.6111 7.8265
upperback -2.07526 0.184693 2.65252
thorax 8.63266 0.30336 -1.51074
lowerneck -18.918 3.13107 5.33379
upperneck 32.6228 2.57354 0.160116
head 14.4935 1.77159 -0.404604
rclavicle -3.40916e-014 3.16068e-014
rhumerus -25.413 11.1052 -89.4143
rradius 26.8065
rwrist -7.47012
rhand -21.4706 -21.8643
rfingers 7.12502
rthumb 4.91998 -51.7872
lclavicle -3.40916e-014 3.16068e-014
lhumerus -30.0327 -17.1813 88.8122
lradius 28.6521
lwrist 36.3631
lhand -27.1064 -3.42704
lfingers 7.12502
lthumb -0.522855 26.5521
rfemur -15.6523 17.5918 31.8609
rtibia 28.2935
rfoot -19.908 -5.46514
rtoes -21.7145
lfemur -53.0995 -12.2449 -0.586921
ltibia 10.5606
lfoot 1.59558 16.4717
ltoes -29.9494
